<svg width="149" height="46" viewBox="0 0 149 46" fill="none" xmlns="http://www.w3.org/2000/svg">
<path d="M7.48 23.88V37H3.6V10.52H7.48V22.36H19.6V10.52H23.48V37H19.6V23.88H7.48ZM28.8703 37V18.92H32.1903V37H28.8703ZM28.4703 13.36C28.4703 12.7733 28.657 12.28 29.0303 11.88C29.4303 11.48 29.9103 11.28 30.4703 11.28C31.057 11.28 31.5503 11.48 31.9503 11.88C32.377 12.28 32.5903 12.76 32.5903 13.32C32.5903 13.88 32.377 14.3733 31.9503 14.8C31.5503 15.2267 31.0703 15.44 30.5103 15.44C29.9503 15.44 29.4703 15.24 29.0703 14.84C28.6703 14.4133 28.4703 13.92 28.4703 13.36ZM39.2862 33.4C39.2862 33.9067 39.6596 34.2533 40.4062 34.44C41.1796 34.6267 42.6462 34.72 44.8062 34.72C46.9662 34.72 48.6996 34.96 50.0062 35.44C51.3129 35.92 51.9662 36.8267 51.9662 38.16C51.9662 40.1333 50.9929 41.9067 49.0462 43.48C47.1262 45.08 44.7662 45.88 41.9662 45.88C39.9396 45.88 38.2729 45.4933 36.9662 44.72C35.6862 43.9733 35.0462 42.8933 35.0462 41.48C35.0462 39.48 36.1396 38 38.3262 37.04C37.0996 36.5867 36.4862 35.7467 36.4862 34.52C36.4862 33.2667 37.4462 31.9067 39.3662 30.44C37.3662 29.4 36.3662 27.7067 36.3662 25.36C36.3662 22.9867 37.0996 21.24 38.5662 20.12C40.0596 19 41.7262 18.44 43.5662 18.44C44.8729 18.44 46.1262 18.8 47.3262 19.52L50.8462 18.52L51.6462 20.24L49.1662 21.48C49.6729 22.36 49.9262 23.3867 49.9262 24.56C49.9262 25.7333 49.6862 26.7733 49.2062 27.68C48.7529 28.56 48.1529 29.24 47.4062 29.72C45.9129 30.68 44.2996 31.16 42.5662 31.16C42.2996 31.16 41.9262 31.1333 41.4462 31.08C40.9929 31.2133 40.5129 31.5067 40.0062 31.96C39.5262 32.4133 39.2862 32.8933 39.2862 33.4ZM46.7662 24.92C46.7662 23.5333 46.3929 22.3333 45.6462 21.32C44.9262 20.28 44.0196 19.76 42.9262 19.76C41.8596 19.76 41.0062 20.2267 40.3662 21.16C39.7262 22.0933 39.4062 23.3067 39.4062 24.8C39.4062 26.2667 39.7662 27.4933 40.4862 28.48C41.2062 29.44 42.0729 29.92 43.0862 29.92C45.5396 29.92 46.7662 28.2533 46.7662 24.92ZM42.6062 44.04C44.8196 44.04 46.6996 43.4267 48.2462 42.2C49.7929 40.9733 50.5662 39.7467 50.5662 38.52C49.2062 37.96 47.2996 37.68 44.8462 37.68C42.4196 37.68 40.7396 37.6 39.8062 37.44C38.6329 38.4267 38.0462 39.48 38.0462 40.6C38.0462 42.8933 39.5662 44.04 42.6062 44.04ZM64.9756 18.52C66.2023 18.52 67.2956 18.9733 68.2556 19.88C69.2156 20.7867 69.6956 22.3467 69.6956 24.56V37H66.3356V24.96C66.3356 23.6533 66.0956 22.68 65.6156 22.04C65.1623 21.3733 64.269 21.04 62.9356 21.04C61.629 21.04 60.2556 21.7467 58.8156 23.16V37H55.4556V9.68H58.6956V21.48C60.8023 19.5067 62.8956 18.52 64.9756 18.52ZM74.9328 37V10.52H78.8528V34.84C80.4795 35.32 81.7861 35.56 82.7728 35.56L90.0128 34.32L89.5328 37H74.9328ZM92.625 37V18.92H95.945V37H92.625ZM92.225 13.36C92.225 12.7733 92.4117 12.28 92.785 11.88C93.185 11.48 93.665 11.28 94.225 11.28C94.8117 11.28 95.305 11.48 95.705 11.88C96.1317 12.28 96.345 12.76 96.345 13.32C96.345 13.88 96.1317 14.3733 95.705 14.8C95.305 15.2267 94.825 15.44 94.265 15.44C93.705 15.44 93.225 15.24 92.825 14.84C92.425 14.4133 92.225 13.92 92.225 13.36ZM104.241 21.48C105.361 20.4133 106.334 19.64 107.161 19.16C108.014 18.68 109.014 18.44 110.161 18.44C111.308 18.44 112.361 18.8933 113.321 19.8C114.308 20.7067 114.801 22.2667 114.801 24.48V37H111.401V24.88C111.401 23.5733 111.161 22.6 110.681 21.96C110.228 21.2933 109.428 20.96 108.281 20.96C107.161 20.96 105.854 21.7067 104.361 23.2V37H100.961V24.44C100.961 22.6267 100.281 21.1733 98.9209 20.08L100.961 18.56L104.241 21.48ZM120.761 27.16C120.761 30.04 121.401 32.12 122.681 33.4C123.988 34.6533 125.561 35.28 127.401 35.28C129.268 35.28 130.988 34.92 132.561 34.2V35.6C130.374 36.8533 128.281 37.48 126.281 37.48C123.694 37.48 121.601 36.6933 120.001 35.12C118.401 33.5467 117.601 31.2667 117.601 28.28C117.601 25.2933 118.481 22.9067 120.241 21.12C122.028 19.3333 124.174 18.44 126.681 18.44C128.628 18.44 130.254 19.2133 131.561 20.76C132.868 22.28 133.521 24.4133 133.521 27.16H120.761ZM124.641 20.32C123.708 20.7733 122.908 21.5067 122.241 22.52C121.574 23.5067 121.134 24.6533 120.921 25.96H130.281C130.201 24.84 129.934 23.88 129.481 23.08C129.054 22.28 128.534 21.6933 127.921 21.32C126.828 20.6533 125.734 20.32 124.641 20.32ZM140.871 20.12C140.178 20.12 139.604 20.3867 139.151 20.92C138.724 21.4267 138.511 22.0133 138.511 22.68C138.511 23.32 138.818 23.9467 139.431 24.56C140.071 25.1467 140.831 25.68 141.711 26.16C142.618 26.6133 143.511 27.0933 144.391 27.6C145.271 28.1067 146.018 28.76 146.631 29.56C147.271 30.36 147.591 31.2533 147.591 32.24C147.591 33.7333 146.991 34.9867 145.791 36C144.591 36.9867 142.951 37.48 140.871 37.48C138.818 37.48 136.938 37 135.231 36.04V34.52C137.044 35.4267 138.684 35.88 140.151 35.88C141.618 35.88 142.684 35.5867 143.351 35C144.018 34.4133 144.351 33.7467 144.351 33C144.351 32.2267 144.044 31.5467 143.431 30.96C142.844 30.3467 142.111 29.8133 141.231 29.36C140.378 28.9067 139.524 28.4267 138.671 27.92C137.818 27.4133 137.084 26.76 136.471 25.96C135.884 25.16 135.591 24.2 135.591 23.08C135.591 21.9333 136.044 20.88 136.951 19.92C137.884 18.9333 139.311 18.44 141.231 18.44C143.151 18.44 144.991 18.7867 146.751 19.48L146.351 22.12C144.378 21.0533 142.551 20.3867 140.871 20.12Z" fill="white"/>
<path d="M136.297 2.10278C136.297 2.10278 115.104 12.7372 100.517 15.4428C119.718 13.3009 126.355 8.0525 134.589 5.16116C134.589 5.16116 136.696 14.1905 145.442 14.6487C145.442 14.6487 136.373 10.5011 136.297 2.10278Z" fill="white"/>
</svg>
